<svg width="15" height="11" viewBox="0 0 15 11" fill="none" xmlns="http://www.w3.org/2000/svg">
<path d="M0.697277 9.82433C0.600259 9.99152 0.657144 10.2057 0.824333 10.3027C0.991522 10.3997 1.2057 10.3429 1.30272 10.1757L0.697277 9.82433ZM15 0L11.1617 1.26517L14.1765 3.95666L15 0ZM8.16605 6.13164L7.92921 6.38933L8.16605 6.13164ZM4.33161 4.25871L4.02889 4.08304L4.33161 4.25871ZM1.30272 10.1757L4.63434 4.43437L4.02889 4.08304L0.697277 9.82433L1.30272 10.1757ZM5.63638 4.28204L7.92921 6.38933L8.40289 5.87394L6.11007 3.76665L5.63638 4.28204ZM9.84981 6.29443L13.1633 2.58292L12.6411 2.11673L9.32763 5.82825L9.84981 6.29443ZM7.92921 6.38933C8.48378 6.89902 9.34818 6.85631 9.84981 6.29443L9.32763 5.82825C9.0861 6.09879 8.66991 6.11935 8.40289 5.87394L7.92921 6.38933ZM4.63434 4.43437C4.84289 4.07499 5.33046 4.00086 5.63638 4.28204L6.11007 3.76665C5.47468 3.18267 4.46203 3.33662 4.02889 4.08304L4.63434 4.43437Z" fill="#E7F4FC"/>
</svg>
