<svg width="20" height="20" viewBox="0 0 20 20" fill="none" xmlns="http://www.w3.org/2000/svg">
<path d="M14.669 -3.05176e-05C18.07 -3.05176e-05 19.99 1.92897 20 5.32997V14.67C20 18.07 18.07 20 14.669 20H5.33C1.929 20 0 18.07 0 14.67V5.32997C0 1.92897 1.929 -3.05176e-05 5.33 -3.05176e-05H14.669ZM10.5 4.12997C10.219 3.95997 9.879 3.95997 9.61 4.12997C9.339 4.29897 9.19 4.60997 9.219 4.91997V15.11C9.27 15.54 9.629 15.86 10.049 15.86C10.48 15.86 10.839 15.54 10.879 15.11V4.91997C10.919 4.60997 10.77 4.29897 10.5 4.12997ZM5.83 7.40997C5.56 7.23997 5.219 7.23997 4.95 7.40997C4.679 7.57997 4.53 7.88897 4.56 8.19997V15.11C4.599 15.54 4.959 15.86 5.389 15.86C5.82 15.86 6.179 15.54 6.219 15.11V8.19997C6.25 7.88897 6.099 7.57997 5.83 7.40997ZM15.089 11.04C14.82 10.87 14.48 10.87 14.2 11.04C13.929 11.21 13.78 11.509 13.82 11.83V15.11C13.86 15.54 14.219 15.86 14.65 15.86C15.07 15.86 15.429 15.54 15.48 15.11V11.83C15.509 11.509 15.36 11.21 15.089 11.04Z" fill="#E7F4FC"/>
</svg>
