<svg width="173" height="37" viewBox="0 0 173 37" fill="none" xmlns="http://www.w3.org/2000/svg">
<path d="M0.982956 33.5135C8.50571 32.3951 14.6918 25.5754 23.6678 24.4292C28.4519 23.8182 32.2845 25.0073 36.5607 26.8549C40.8368 28.7026 39.9997 29.5004 49.6167 30.9248C57.5529 32.1003 59.6288 19.427 67.4055 19.914C75.1822 20.4009 78.7791 5.16374 86.9896 6.43568C95.2001 7.70762 96.8406 4.41907 104.558 10.6516C112.276 16.884 119.407 2.35653 129.095 1.08459C138.784 -0.187342 141.307 13.3128 145.905 12.804C150.503 12.2952 154.643 21.9149 158.584 23.3141C162.525 24.7132 163.642 19.6306 172.017 19.6306" stroke="#E7F4FC" stroke-width="0.730261" stroke-linecap="square" stroke-linejoin="round"/>
<path d="M22.9456 24.5795C13.8664 25.7332 7.60922 32.5966 0 33.7222V36.4982H173V19.7502C164.529 19.7502 163.399 24.8654 159.412 23.4573C155.426 22.0492 151.239 12.3677 146.588 12.8798C141.937 13.3918 139.385 -0.194963 129.585 1.08514C119.785 2.36524 112.573 16.986 104.766 10.7135C96.9595 4.44102 95.3001 7.75067 86.9952 6.47057C78.6903 5.19047 75.0522 20.5254 67.1861 20.0354C59.32 19.5453 57.2202 32.2999 49.1927 31.1169C39.4652 29.6833 40.3119 28.8804 35.9866 27.0209C31.6614 25.1614 27.7847 23.9646 22.9456 24.5795Z" fill="url(#paint0_linear_4_56)"/>
<defs>
<linearGradient id="paint0_linear_4_56" x1="86.5" y1="1" x2="86.5" y2="51.3471" gradientUnits="userSpaceOnUse">
<stop stop-color="#E7F4FC" stop-opacity="0.2"/>
<stop offset="0.998978" stop-color="#E7F4FC" stop-opacity="0"/>
</linearGradient>
</defs>
</svg>
