<svg width="19" height="20" viewBox="0 0 19 20" fill="none" xmlns="http://www.w3.org/2000/svg">
<path d="M6.63477 18.7733V15.7155C6.63477 14.935 7.27217 14.3022 8.05843 14.3022H10.9326C11.3102 14.3022 11.6723 14.4511 11.9393 14.7162C12.2063 14.9812 12.3563 15.3407 12.3563 15.7155V18.7733C12.3539 19.0978 12.4821 19.4098 12.7124 19.6401C12.9427 19.8704 13.256 19.9999 13.5829 19.9999H15.5438C16.4596 20.0023 17.3387 19.6428 17.9872 19.0007C18.6356 18.3587 19 17.4869 19 16.5778V7.86679C19 7.13239 18.6721 6.43578 18.1046 5.9646L11.434 0.675808C10.2737 -0.251499 8.61111 -0.221559 7.48539 0.746917L0.967012 5.9646C0.37274 6.42189 0.0175523 7.12057 0 7.86679V16.5689C0 18.4638 1.54738 19.9999 3.45617 19.9999H5.37229C6.05122 19.9999 6.60299 19.4561 6.60791 18.7822L6.63477 18.7733Z" fill="#E7F4FC"/>
</svg>
