<svg width="35" height="35" viewBox="0 0 35 35" fill="none" xmlns="http://www.w3.org/2000/svg">
<path fill-rule="evenodd" clip-rule="evenodd" d="M16.1036 24.9217C16.5353 25.4025 17.0894 25.6667 17.6644 25.6667C18.2419 25.6667 18.7994 25.4025 19.2319 24.9208C19.4636 24.665 19.8586 24.6442 20.1144 24.875C20.3711 25.1058 20.3919 25.5017 20.1611 25.7575C19.4878 26.505 18.6019 26.9167 17.6653 26.9167H17.6636C16.7294 26.9158 15.8453 26.5042 15.1744 25.7567C14.9436 25.5008 14.9644 25.105 15.2211 24.875C15.4778 24.6433 15.8728 24.6642 16.1036 24.9217ZM17.7059 9C21.4101 9 23.8984 11.885 23.8984 14.5792C23.8984 15.965 24.2509 16.5525 24.6251 17.1758C24.9951 17.7908 25.4143 18.4892 25.4143 19.8092C25.1234 23.1817 21.6026 23.4567 17.7059 23.4567C13.8093 23.4567 10.2876 23.1817 10.0001 19.8625C9.9976 18.4892 10.4168 17.7908 10.7868 17.1758L10.9174 16.956C11.239 16.4032 11.5134 15.802 11.5134 14.5792C11.5134 11.885 14.0018 9 17.7059 9ZM17.7059 10.25C14.7934 10.25 12.7634 12.5317 12.7634 14.5792C12.7634 16.3117 12.2826 17.1125 11.8576 17.8192C11.5168 18.3867 11.2476 18.835 11.2476 19.8092C11.3868 21.3808 12.4243 22.2067 17.7059 22.2067C22.9584 22.2067 24.0284 21.3442 24.1668 19.755C24.1643 18.835 23.8951 18.3867 23.5543 17.8192C23.1293 17.1125 22.6484 16.3117 22.6484 14.5792C22.6484 12.5317 20.6184 10.25 17.7059 10.25Z" fill="white"/>
<circle cx="17.5" cy="17.5" r="17.25" stroke="white" stroke-opacity="0.3" stroke-width="0.5"/>
<circle cx="24" cy="13" r="4" fill="#E6DCF5"/>
</svg>
