<svg width="20" height="20" viewBox="0 0 20 20" fill="none" xmlns="http://www.w3.org/2000/svg">
<path d="M15.6207 15.6543C16.0072 15.2703 16.6268 15.2703 17.0134 15.6543L19.568 17.7164H19.6124C20.1292 18.2388 20.1292 19.0858 19.6124 19.6082C19.0955 20.1306 18.2576 20.1306 17.7407 19.6082L15.6207 17.1784L15.5403 17.0877C15.3904 16.898 15.3076 16.6615 15.3076 16.4163C15.3076 16.1304 15.4203 15.8561 15.6207 15.6543ZM8.57764 -3.05176e-05C10.8526 -3.05176e-05 13.0343 0.913406 14.6429 2.53933C16.2516 4.16526 17.1553 6.37049 17.1553 8.6699C17.1553 13.4582 13.3149 17.3398 8.57764 17.3398C3.84034 17.3398 0 13.4582 0 8.6699C0 3.88163 3.84034 -3.05176e-05 8.57764 -3.05176e-05Z" fill="white" fill-opacity="0.6"/>
</svg>
