<svg width="22" height="20" viewBox="0 0 22 20" fill="none" xmlns="http://www.w3.org/2000/svg">
<path d="M9.96875 2.30848C8.31586 2.4959 6.74815 3.14118 5.44225 4.17161L6.5725 5.30323C6.75466 5.49872 6.85383 5.75729 6.84911 6.02445C6.8444 6.29161 6.73617 6.54652 6.54723 6.73546C6.35829 6.9244 6.10338 7.03263 5.83622 7.03735C5.56905 7.04206 5.31049 6.94289 5.115 6.76073L3.97925 5.62636C3.01397 6.83712 2.38592 8.28154 2.15875 9.81323H4.46875C4.74225 9.81323 5.00456 9.92188 5.19795 10.1153C5.39135 10.3087 5.5 10.571 5.5 10.8445C5.5 11.118 5.39135 11.3803 5.19795 11.5737C5.00456 11.7671 4.74225 11.8757 4.46875 11.8757H2.09687C2.31095 14.0825 3.31952 16.1363 4.93487 17.6549C5.1297 17.843 5.24267 18.1003 5.24936 18.3711C5.25605 18.6419 5.15593 18.9045 4.97063 19.102C4.78533 19.2996 4.52974 19.4164 4.25907 19.427C3.98841 19.4377 3.72441 19.3415 3.52412 19.1591C1.40663 17.175 0 14.249 0 11.1099C0 5.07086 4.93212 0.188232 11 0.188232C17.0679 0.188232 22 5.06948 22 11.1099C21.9973 12.617 21.688 14.1078 21.0909 15.4915C20.4938 16.8753 19.6214 18.1232 18.5267 19.1591C18.3265 19.3415 18.0625 19.4377 17.7918 19.427C17.5211 19.4164 17.2655 19.2996 17.0802 19.102C16.8949 18.9045 16.7948 18.6419 16.8015 18.3711C16.8082 18.1003 16.9212 17.843 17.116 17.6549C18.7201 16.1337 19.712 14.078 19.9045 11.8757H17.5312C17.2577 11.8757 16.9954 11.7671 16.802 11.5737C16.6086 11.3803 16.5 11.118 16.5 10.8445C16.5 10.571 16.6086 10.3087 16.802 10.1153C16.9954 9.92188 17.2577 9.81323 17.5312 9.81323H19.8412C19.2582 5.87248 16.0559 2.76636 12.0312 2.30848V3.96948C12.0312 4.24299 11.9226 4.50529 11.7292 4.69869C11.5358 4.89208 11.2735 5.00073 11 5.00073C10.7265 5.00073 10.4642 4.89208 10.2708 4.69869C10.0774 4.50529 9.96875 4.24299 9.96875 3.96948V2.30848ZM15.7424 5.42286C15.8673 5.32362 16.0229 5.27094 16.1824 5.27383C16.342 5.27673 16.4955 5.33503 16.6168 5.43874C16.7381 5.54244 16.8195 5.6851 16.8471 5.84226C16.8747 5.99941 16.8468 6.16128 16.7681 6.30011L16.6169 6.56961C16.0639 7.546 15.5075 8.52042 14.9476 9.49286C14.5 10.271 14.0463 11.0456 13.5864 11.8166C13.414 12.1067 13.238 12.3945 13.0584 12.6801C12.9209 12.896 12.7861 13.1009 12.6871 13.2164C12.3319 13.6324 11.826 13.8904 11.2806 13.9335C10.7352 13.9765 10.1951 13.8012 9.779 13.446C9.36291 13.0908 9.10496 12.5849 9.06189 12.0395C9.01883 11.4941 9.19418 10.9539 9.54937 10.5379C9.64837 10.4224 9.8285 10.256 10.021 10.0869C10.2272 9.90398 10.4926 9.67986 10.791 9.42823C11.3905 8.92773 12.1412 8.31448 12.8727 7.72323C13.7453 7.01744 14.6207 6.31526 15.499 5.61673L15.7424 5.42423V5.42286Z" fill="white"/>
</svg>
